<?xml version="1.0" encoding="UTF-8"?><svg id="Capa_1" xmlns="http://www.w3.org/2000/svg" viewBox="0 0 586.14 498.27"><defs><style>.cls-1{fill:#010101;}.cls-2{fill:#1d1d1b;}.cls-3{fill:#fff;}</style></defs><path class="cls-3" d="M291.08,488.77c-15.85,0-30.59-8.51-39.44-22.78C189.56,365.85,76.54,183.44,17.12,86.95c-9.82-15.95-10.17-36.15-.91-52.72,8.65-15.49,23.9-24.73,40.8-24.73,0,0,472.49,1.15,472.49,1.15,16.84.04,32.01,9.37,40.58,24.96,9.2,16.73,8.71,36.96-1.28,52.8l-238.37,377.85c-8.9,14.1-23.6,22.52-39.34,22.52Z"/><path class="cls-2" d="M57,19s.06,0,.09,0l472.37,1.15c29.88.07,48.04,36.63,31.29,63.18l-238.37,377.85c-7.61,12.06-19.46,18.09-31.3,18.09s-23.81-6.1-31.36-18.28C203.37,370.1,85.8,180.36,25.21,81.97c-16.52-26.83,1.83-62.97,31.79-62.97M57,0h0C36.61,0,18.26,11.07,7.91,29.6c-10.93,19.57-10.5,43.46,1.12,62.33,59.45,96.53,172.46,278.93,234.54,379.06,10.59,17.08,28.35,27.27,47.51,27.27s36.73-10.07,47.37-26.95l238.37-377.85c11.83-18.76,12.44-42.69,1.57-62.44-10.26-18.66-28.54-29.83-48.88-29.88L57.14,0h-.14Z"/><path class="cls-1" d="M415.39,145.69c-.63-12.18-9.38-23.83-21.79-25.79-10.39-1.64-29.4,1.97-37.78-.52-6.88-2.04-20.46-25.15-33.01-28.5-11.45-3.06-42.39-2.12-55.09-1.09-5.29.43-11.83.77-16.42,3.31-7.46,4.12-24.21,25.08-28.26,26.29-8.39,2.49-27.39-1.12-37.78.52-13.71,2.16-20.78,14.08-21.8,26.95-2.2,27.89-1.95,74.17-.01,102.23,1.03,14.87,8.1,26.38,23.8,28.43,69.75-.63,139.73,1.03,209.34-.84,12.08-3.91,17.86-14.16,18.83-26.44,2.64-33.6-2.09-70.57,0-104.54ZM324.21,239.13c-26.46,21.05-64.82,13.03-82-15.45-20.66-34.25,1.05-79.24,40.57-84.02,56.1-6.77,86.12,63.9,41.44,99.46Z"/><path class="cls-1" d="M282.72,158.19c52.02-8.17,59.62,66.64,14.53,73.72-52.07,8.18-59.51-66.66-14.53-73.72Z"/></svg>