<?xml version="1.0" encoding="UTF-8"?><svg id="Capa_1" xmlns="http://www.w3.org/2000/svg" viewBox="0 0 586.14 498.27"><defs><style>.cls-1{fill:#1d1d1b;}.cls-2,.cls-3{fill:#fff;}.cls-4{fill:#010101;}.cls-4,.cls-3,.cls-5{stroke:#1d1d1b;stroke-miterlimit:10;stroke-width:3px;}.cls-5{fill:#cf3535;}</style></defs><path class="cls-2" d="M291.08,488.77c-15.85,0-30.59-8.51-39.44-22.78C189.55,365.84,76.52,183.41,17.12,86.95c-9.82-15.95-10.17-36.15-.91-52.72,8.65-15.49,23.9-24.73,40.8-24.73,0,0,472.49,1.15,472.49,1.15,16.84.04,32.01,9.37,40.58,24.96,9.2,16.73,8.71,36.96-1.28,52.8l-238.38,377.85c-8.9,14.1-23.6,22.52-39.34,22.52Z"/><path class="cls-1" d="M57,19s.06,0,.09,0l472.37,1.15c29.88.07,48.04,36.63,31.29,63.18l-238.37,377.85c-7.61,12.06-19.46,18.09-31.3,18.09s-23.81-6.1-31.36-18.28C203.37,370.1,85.8,180.36,25.21,81.97c-16.52-26.83,1.83-62.97,31.79-62.97M57,0h0C36.61,0,18.26,11.07,7.91,29.6c-10.93,19.57-10.5,43.46,1.12,62.33,59.45,96.53,172.46,278.93,234.54,379.06,10.59,17.08,28.35,27.27,47.51,27.27s36.73-10.07,47.37-26.95l238.37-377.85c11.83-18.76,12.44-42.69,1.57-62.44-10.26-18.66-28.54-29.83-48.88-29.88L57.14,0h-.14Z"/><path class="cls-4" d="M285.72,95.33c72.5-1.45,117.05,75.65,82.15,139.02-32.95,59.84-124.83,60.63-159.24,1.7-35.91-61.52,5.68-139.29,77.08-140.72Z"/><path class="cls-4" d="M286.67,36.25c5.98-.67,9.14,3.33,9.56,8.9.66,8.81-.44,18.51-.1,27.41-1.24,10.27-14.75,10.59-16.66.72.97-9.37-1.33-21.53.08-30.57.55-3.54,3.65-6.07,7.12-6.46Z"/><path class="cls-4" d="M184.6,78.25c2.85-.46,4.95.09,7.18,1.83,7.11,5.55,13.64,14.77,20.7,20.69,5.74,7.19-2.95,17.09-10.84,12.42-.59-.35-1.69-1.33-2.27-1.84-3.79-3.26-18.05-17.04-20.12-20.64-2.77-4.82-.23-11.57,5.35-12.46Z"/><path class="cls-4" d="M286.02,295.31c5.92-.93,9.76,2.89,10.2,8.6.56,7.16.54,19.39,0,26.56-.2,2.66-.91,5.34-3.02,7.09-4.9,4.05-13.03,1.31-13.74-5.2-1.02-9.43.75-20.68.03-30.31.75-3.26,3.09-6.21,6.53-6.74Z"/><path class="cls-4" d="M205.15,261.18c6.9-.6,11.97,7.91,7.47,13.5-7.09,5.81-14.01,15.9-21.2,21.14-7.89,5.73-18.33-3.91-10.54-13.07,4.51-5.3,13.34-14.13,18.65-18.64,1.57-1.34,3.48-2.74,5.63-2.93Z"/><path class="cls-4" d="M387.45,78.25c7.75-1.24,12.79,6.75,8.37,13.11-2.36,3.41-17.7,18.7-21.14,21.2-8.07,5.87-17.15-3.64-11.87-11.55,6.81-6.13,13.29-14.78,20.29-20.47,1.16-.94,2.87-2.05,4.35-2.29Z"/><path class="cls-4" d="M369.14,261.19c2.17-.14,4.23.85,5.9,2.15,7.16,5.6,13.77,14.86,20.83,20.87,5.18,8.29-3.92,17.51-12.24,11.29-7.22-5.4-14.39-15.26-21.2-21.45-3.44-5.27.7-12.47,6.71-12.86Z"/><path class="cls-4" d="M142.57,179.67l31.7.06c8.31,2.29,7.96,14.53-.52,16.26l-31.42-.12c-8.52-2.46-8.32-14,.25-16.21Z"/><path class="cls-4" d="M397.43,193.7c-4.72-4.79-1.98-12.91,4.5-14.08l31.18.05c8.47,2.1,8.32,14.52-.27,16.33-9.73-.72-21.09,1.06-30.62.03-1.54-.17-3.71-1.23-4.78-2.33Z"/><path class="cls-5" d="M450.09,32.37c.04.39-.69.62-.99.74-.96.39-2.6.99-3.43.04-.25-1.3,3.64-.64,4.42-.78Z"/><path class="cls-3" d="M284.77,112.39c39.68-1.63,71.82,25.23,77.74,64.25,9.58,63.16-58.96,109.12-113.79,76.19-63.61-38.21-40.02-137.31,36.05-140.44Z"/><path class="cls-4" d="M286.02,123.12c4.71-.79,14.94,1.24,19.74,2.54,65.78,17.82,60.88,116.5-9.44,126.24-6.49.9-14.02,2.36-16.64-5.38-.5-38.75-.07-77.59-.22-116.37.35-3.12,3.44-6.51,6.55-7.03Z"/><path class="cls-3" d="M296.21,235.21v-94.78c28.97,5.12,45.68,33.7,37.37,61.85-5.14,17.4-19.61,29.71-37.37,32.93Z"/></svg>