<?xml version="1.0" encoding="UTF-8"?><svg id="Capa_1" xmlns="http://www.w3.org/2000/svg" viewBox="0 0 863.05 730.79"><defs><style>.cls-1{fill:#1d1d1b;}.cls-2{fill:#fff;}</style></defs><path class="cls-2" d="M428.52,721.29c-22.19,0-42.85-11.97-55.28-32.01C279.82,538.58,109.74,264.06,20.25,118.77c-13.87-22.52-14.36-51.07-1.27-74.5C31.14,22.5,52.53,9.5,76.2,9.5l711.17,1.74c23.58.06,44.85,13.17,56.89,35.08,13.01,23.65,12.32,52.24-1.79,74.6l-358.8,568.73c-12.51,19.82-33.12,31.66-55.15,31.66Z"/><path class="cls-1" d="M76.2,19s.09,0,.14,0l711.01,1.74c44.97.11,72.31,55.13,47.1,95.1l-358.8,568.73c-11.45,18.15-29.3,27.23-47.12,27.23s-35.83-9.18-47.2-27.52C296.52,547.47,119.55,261.88,28.34,113.79,3.47,73.4,31.09,19,76.2,19M76.2,0h0C49.04,0,24.55,14.82,10.69,39.64c-14.76,26.43-14.19,58.66,1.48,84.11,89.42,145.2,259.55,419.78,353.01,570.54,14.17,22.86,37.85,36.51,63.35,36.51s48.93-13.49,63.19-36.09L850.51,125.98c15.95-25.28,16.75-57.56,2.07-84.24-13.74-24.98-38.11-39.93-65.19-40L76.38,0h-.18Z"/><path class="cls-1" d="M227.36,107.59v29.25h-33.38v23.34h33.38v29.25h-33.38v23.34h33.38v29.25h-33.78c-12.21-.1-19.6-.59-22.26-1.48-5.61-1.77-9.16-5.81-10.73-12.11-1.87-6.99-2.76-18.61-2.66-34.86v-42.84c0-8.37,1.08-21.86,2.17-26.49,1.48-6.21,4.04-10.54,7.78-13,2.66-1.67,5.42-2.66,8.37-2.95,3.25-.3,8.96-.59,17.33-.69h33.78Z"/><path class="cls-1" d="M271.78,107.59c1.67,6.2,2.86,12.11,3.55,17.63,1.87-7.39,4.92-12.31,9.26-14.87,3.15-1.87,8.27-2.76,15.46-2.76,8.17,0,13.59.79,16.35,2.46,4.63,2.86,7.48,7.58,8.67,14.08.29,1.67.49,10.73.59,27.08v90.8h-36.04v-93.06c0-7.19-2.46-10.73-7.39-10.73s-7.39,3.74-7.39,11.23v92.57h-36.04v-103.8c0-11.23-1.08-21.47-3.35-30.63h36.34Z"/><path class="cls-1" d="M401.09,107.59v29.25h-16.35v105.18h-36.04v-105.18h-16.35v-29.25h68.74Z"/><path class="cls-1" d="M407.59,107.59h55.15c8.17,0,13.79.2,17.04.59,6.5.79,10.73,4.14,12.7,9.95,1.48,4.23,2.26,9.36,2.36,15.36v8.67c0,6.01-.2,10.24-.49,12.7-.98,6.79-3.54,11.72-7.78,14.77-2.46,1.67-6.2,2.86-11.42,3.45,5.32,1.58,9.16,3.15,11.62,4.73,5.71,4.04,8.37,10.93,8.08,20.88v20.78c.1,9.16.99,16.74,2.86,22.55h-36.14c-1.87-5.71-2.86-13.29-2.76-22.65v-17.92c-.1-4.83-1.08-8.08-3.05-9.75-1.87-1.48-4.33-2.27-7.58-2.27h-4.53v52.59h-36.04V107.59ZM443.63,160.18h5.12c4.04,0,6.7-.59,7.88-1.87,1.58-1.67,2.36-4.92,2.36-9.85s-1.08-8.17-3.25-10.04c-1.28-1.08-3.64-1.67-6.99-1.67h-5.12v23.44Z"/><path class="cls-1" d="M543.89,213.65v28.36h-36.04v-106.95c-.1-10.93,1.97-18.42,6.2-22.45,2.86-2.36,7.88-3.84,14.97-4.43,4.04-.39,9.16-.59,15.17-.59h14.67c8.96,0,15.76.39,20.19,1.08,4.43.79,7.78,2.07,9.85,3.94,4.33,4.04,6.4,11.52,6.3,22.45v106.95h-36.04v-28.36h-15.26ZM543.89,183.72h15.26v-35.55c0-8.17-2.56-12.31-7.68-12.31s-7.58,4.14-7.58,12.31v35.55Z"/><path class="cls-1" d="M608.1,107.59h55.15c8.17,0,13.79.2,17.04.59,6.5.79,10.73,4.14,12.7,9.95,1.48,4.23,2.26,9.36,2.36,15.36v8.67c0,6.01-.2,10.24-.49,12.7-.98,6.79-3.54,11.72-7.78,14.77-2.46,1.67-6.2,2.86-11.42,3.45,5.32,1.58,9.16,3.15,11.62,4.73,5.71,4.04,8.37,10.93,8.08,20.88v20.78c.1,9.16.99,16.74,2.86,22.55h-36.14c-1.87-5.71-2.86-13.29-2.76-22.65v-17.92c-.1-4.83-1.08-8.08-3.05-9.75-1.87-1.48-4.33-2.27-7.58-2.27h-4.53v52.59h-36.04V107.59ZM644.14,160.18h5.12c4.04,0,6.7-.59,7.88-1.87,1.58-1.67,2.36-4.92,2.36-9.85s-1.08-8.17-3.25-10.04c-1.28-1.08-3.64-1.67-6.99-1.67h-5.12v23.44Z"/></svg>