<?xml version="1.0" encoding="UTF-8"?><svg id="Capa_1" xmlns="http://www.w3.org/2000/svg" viewBox="0 0 586.14 498.27"><defs><style>.cls-1{fill:#1d1d1b;}.cls-2{fill:#fff;}.cls-3{fill:#010202;}</style></defs><path class="cls-2" d="M291.08,488.77c-15.85,0-30.59-8.51-39.44-22.78C189.57,365.87,76.56,183.48,17.12,86.95c-9.82-15.95-10.17-36.15-.91-52.72,8.65-15.49,23.9-24.73,40.8-24.73,0,0,472.49,1.15,472.49,1.15,16.84.04,32.01,9.37,40.58,24.96,9.2,16.73,8.71,36.96-1.28,52.8l-238.38,377.85c-8.9,14.1-23.6,22.52-39.34,22.52Z"/><path class="cls-1" d="M57,19s.06,0,.09,0l472.37,1.15c29.88.07,48.04,36.63,31.29,63.18l-238.37,377.85c-7.61,12.06-19.46,18.09-31.3,18.09s-23.81-6.1-31.36-18.28C203.37,370.1,85.8,180.36,25.21,81.97c-16.52-26.83,1.83-62.97,31.79-62.97M57,0h0C36.61,0,18.26,11.07,7.91,29.6c-10.93,19.57-10.5,43.46,1.12,62.33,59.47,96.56,172.47,278.94,234.54,379.06,10.59,17.08,28.35,27.27,47.51,27.27s36.73-10.07,47.37-26.95l238.37-377.85c11.83-18.76,12.44-42.69,1.57-62.44-10.26-18.66-28.54-29.83-48.88-29.88L57.14,0h-.14Z"/><path class="cls-3" d="M167.09,324.67c-.18-19.45.92-40.12,8.86-58.11,8.98-20.36,26.66-31.71,47.52-37.7,2.44-.7,15.37-3.03,15.9-3.64.24-.27,1.06-5.44,1.71-6.94,1.21-2.78,3.82-5.6,6.58-6.88,1.75-.81,6.74-1.41,7.11-2.5l.64-15.19c-5.56-3.55-8.83-6.98-10-13.73-.35-2.04.2-4.35-.3-6.11-.43-1.52-8.4-10.25-10.22-13.48-4.03-7.12-6.04-14.16-4.2-22.36.6-2.67,2.31-5.17,2.44-7.85.38-7.79-3.16-19.2-3.28-27.6-.02-1.65.48-9.96.71-11.47.1-.65,2.99-9.73,3.24-10.21,1.45-2.83,6.81-3.28,7.03-7.12.15-2.72-2.5-3.81-.06-6.09-4.27.09-4.35,2.29-3.21,5.76-6.47-4.82.22-6.32,3.17-8.69s5.77-6.04,9.63-7.03,10.04.59,13.05-.4c1.21-.4,1.35-2.43,2.37-3.39,1.45-1.37,4.52-1.69,6.31-2.66,4.63-2.49,6.61-7.67,11.92-.91,1.46-1.27.74-3.44,2.26-4.78,3.88-3.42,14.52,3.58,19.39,3.64,1.7.35,3.33,2.55,4.77,2.92,3.66.94,8.14-.47,11.06,3.99l-7.69-.63c.08.58-.18,1.43.08,1.84.41.65,7.95,3.1,9.33,3.81,5.14,2.65,20.59,12.71,22.96,17.41.4.79,1.93,5.45,1.59,5.77l-4.49.33c1.03,2.88,2.86,5.53,3.66,8.51.43,1.58,2.9,12.5,2.75,13.16-.12.51-1.27.19-1.36,1.37-.21,2.82,1.2,6.04.67,9.6-.59,3.97-3.12,9.02-3.18,13.53-.04,2.63,1.57,4.67,1.89,7.07,1.47,10.98-1.88,19.16-7.75,28.02-1.21,1.83-4.57,4.98-5.16,6.37-1.28,3-.78,8.66-2.74,13.28-1.39,3.29-5.74,7.91-6.43,10.24-1.05,3.55-.02,10.1-.93,14.12,8.61-.23,14.71,7.05,14.78,15.34,20.64,3.5,42.89,11.1,55.94,28.32,15.16,20.01,16.65,46.78,16.4,71.07h-244.75Z"/><path class="cls-1" d="M399.07,154.66v-8.42c0-5.27.37-8.88,1.02-11.01,2.04-5.92,6.85-10.55,14.43-13.88l5.74-2.5c4.72-2.13,7.77-4.44,9.07-7.12.83-1.94,1.2-5,1.2-9.16v-19.33h-12.67v14.25h-27.47v-12.58c-.09-10.82,1.94-17.85,5.92-21.28,2.41-1.94,6.01-3.24,10.92-3.7,2.59-.28,5.64-.46,9.25-.46h13.88c11.01,0,18.13.83,21.46,2.41,6.01,2.78,8.97,9.71,8.88,20.91v14.71c.19,11.38-1.02,19.43-3.7,23.96-3.33,4.53-8.79,8.51-16.28,11.75-3.24,1.57-5.37,3.05-6.57,4.63-1.76,2.31-2.78,5.18-2.96,8.6-.09,1.39-.09,4.07-.09,8.23h-32.01ZM399.07,165.58h32.01v20.17h-32.01v-20.17Z"/><path class="cls-1" d="M176.62,91.12v8.42c0,5.27-.37,8.88-1.02,11.01-2.04,5.92-6.85,10.55-14.43,13.88l-5.74,2.5c-4.72,2.13-7.77,4.44-9.07,7.12-.83,1.94-1.2,5-1.2,9.16v19.33h12.67v-14.25h27.47v12.58c.09,10.82-1.94,17.85-5.92,21.28-2.41,1.94-6.01,3.24-10.92,3.7-2.59.28-5.64.46-9.25.46h-13.88c-11.01,0-18.13-.83-21.46-2.41-6.01-2.78-8.97-9.71-8.88-20.91v-14.71c-.19-11.38,1.02-19.43,3.7-23.96,3.33-4.53,8.79-8.51,16.28-11.75,3.24-1.57,5.37-3.05,6.57-4.63,1.76-2.31,2.78-5.18,2.96-8.6.09-1.39.09-4.07.09-8.23h32.01ZM176.62,80.2h-32.01v-20.17h32.01v20.17Z"/></svg>