<?xml version="1.0" encoding="UTF-8"?>
<svg id="Capa_1" xmlns="http://www.w3.org/2000/svg" version="1.1" viewBox="0 0 863.05 730.79">
  <!-- Generator: Adobe Illustrator 30.0.0, SVG Export Plug-In . SVG Version: 2.1.1 Build 123)  -->
  <defs>
    <style>
      .st0, .st1 {
        fill: #010101;
      }

      .st2 {
        fill: #030304;
      }

      .st3 {
        fill: #f7f6f6;
      }

      .st4 {
        fill: #f6f5f6;
      }

      .st5 {
        fill: #f7f5f6;
      }

      .st6 {
        fill: #1d1d1b;
      }

      .st7 {
        stroke-width: .5px;
      }

      .st7, .st1, .st8, .st9, .st10 {
        stroke: #1d1d1b;
        stroke-miterlimit: 10;
      }

      .st7, .st9 {
        fill: #020203;
      }

      .st11, .st8 {
        fill: #fff;
      }

      .st1, .st8, .st10 {
        stroke-width: 3px;
      }

      .st9 {
        stroke-width: 12px;
      }

      .st10 {
        fill: #cf3535;
      }

      .st12 {
        fill: #010202;
      }
    </style>
  </defs>
  <g>
    <path class="st11" d="M1237.05-682.23c-15.85,0-30.59-8.51-39.44-22.78-62.08-100.15-175.1-282.56-234.52-379.04-9.82-15.95-10.17-36.15-.91-52.72,8.65-15.49,23.9-24.73,40.8-24.73,0,0,472.49,1.15,472.49,1.15,16.84.04,32.01,9.37,40.58,24.96,9.2,16.73,8.71,36.96-1.28,52.8l-238.37,377.85c-8.9,14.1-23.6,22.52-39.34,22.52Z"/>
    <path class="st6" d="M1002.97-1152s.06,0,.09,0l472.37,1.15c29.88.07,48.04,36.63,31.29,63.18l-238.37,377.85c-7.61,12.06-19.46,18.09-31.3,18.09s-23.81-6.1-31.36-18.28c-56.34-90.89-173.91-280.63-234.51-379.02-16.52-26.83,1.83-62.97,31.79-62.97M1002.97-1171h0c-20.39,0-38.74,11.07-49.09,29.6-10.93,19.57-10.5,43.46,1.12,62.33,59.45,96.53,172.46,278.93,234.54,379.06,10.59,17.08,28.35,27.27,47.51,27.27s36.73-10.07,47.37-26.95l238.37-377.85c11.83-18.76,12.44-42.69,1.57-62.44-10.26-18.66-28.54-29.83-48.88-29.88l-472.37-1.15h-.14Z"/>
  </g>
  <g>
    <path class="st11" d="M-70.27-682.23c-15.85,0-30.59-8.51-39.44-22.78-62.07-100.12-175.07-282.5-234.52-379.04-9.82-15.95-10.17-36.15-.91-52.72,8.65-15.49,23.9-24.73,40.8-24.73,0,0,472.49,1.15,472.49,1.15,16.84.04,32.01,9.37,40.58,24.96,9.2,16.73,8.71,36.96-1.28,52.8L-30.93-704.75c-8.9,14.1-23.6,22.52-39.34,22.52Z"/>
    <path class="st6" d="M-304.34-1152s.06,0,.09,0l472.37,1.15c29.88.07,48.04,36.63,31.29,63.18L-38.96-709.82c-7.61,12.06-19.46,18.09-31.3,18.09s-23.81-6.1-31.36-18.28c-56.34-90.89-173.91-280.63-234.51-379.02-16.52-26.83,1.83-62.97,31.79-62.97M-304.34-1171h0c-20.39,0-38.74,11.07-49.09,29.6-10.93,19.57-10.5,43.46,1.12,62.33,59.43,96.5,172.46,278.92,234.54,379.06,10.59,17.08,28.35,27.27,47.51,27.27s36.73-10.07,47.37-26.95l238.37-377.85c11.83-18.76,12.44-42.69,1.57-62.44-10.26-18.66-28.54-29.83-48.88-29.88l-472.37-1.15h-.14Z"/>
  </g>
  <g>
    <path class="st2" d="M-49.43-822.66h-37.66v13.2c0,2.97-4.33,7.67-7.39,8.23-4.84.88-22.05.66-27.34.15-10.8-1.04-7.81-14.8-8.55-22.15-10.73-2.71-18.84-10.88-20.61-21.93l-.16-257.42c.82-11.67,8.93-21.21,20.25-23.91l123.73-.07c11.55,1.39,20.48,11.5,21.76,22.93l-.05,258.01c-1.69,11.29-9.71,19.64-20.69,22.38-.69,7.32,2.17,21.15-8.55,22.15-5.37.5-22.44.74-27.34-.15-2.52-.46-5.1-2.91-6.18-5.12-.2-.42-1.21-2.94-1.21-3.1v-13.2Z"/>
    <g>
      <path class="st11" d="M-125.58-826.07c-.2,0-.39,0-.59-.02-11.05-.69-20.08-9.03-21.48-19.84-.05-.4-.08-.81-.08-1.22v-255.43c0-.28.02-.56.04-.84.85-9.5,7.79-17.46,17.28-19.81.74-.18,1.51-.28,2.27-.28,0,0,118.79-.13,118.79-.13.49,0,.98.04,1.46.11,10.31,1.6,18.14,9.87,19.05,20.11.02.28.04.56.04.84v255.96c0,.76-.1,1.52-.28,2.26-2.53,10.36-10.6,17.35-21.05,18.26-.27.02-.55.04-.82.04h-114.64Z"/>
      <path class="st6" d="M-9.34-1114.14c5.87.91,10.52,5.56,11.05,11.56v255.96c-1.56,6.35-6.09,10.48-12.65,11.05h-114.64c-6.36-.4-11.82-5.17-12.65-11.57v-255.43c.51-5.59,4.78-10.11,10.11-11.43l118.78-.13M-9.34-1133.14s-.01,0-.02,0l-118.78.13c-1.53,0-3.06.19-4.55.56-13.42,3.33-23.25,14.65-24.46,28.19-.05.56-.08,1.12-.08,1.69v255.43c0,.82.05,1.63.15,2.44,1.98,15.31,14.73,27.12,30.31,28.1.39.02.79.04,1.18.04H-10.94c.55,0,1.09-.02,1.64-.07,14.64-1.27,25.92-11.03,29.45-25.47.36-1.48.54-2.99.54-4.51v-255.96c0-.56-.02-1.13-.07-1.69-1.3-14.59-12.42-26.37-27.05-28.65-.97-.15-1.94-.23-2.92-.23h0Z"/>
    </g>
    <rect class="st4" x="-117.76" y="-822.66" width="17.76" height="9.16"/>
    <rect class="st5" x="-36.52" y="-822.66" width="17.76" height="9.16"/>
    <path class="st9" d="M-73.21-965.27c44.66-3.86,75.76,44.05,53.81,83.51-19.92,35.81-71.44,38.27-94.81,4.64-24.57-35.35-1.54-84.48,41-88.15Z"/>
    <path class="st9" d="M-71.6-1096.74c44.35-2.91,73.91,45.63,51.85,84.25-21.55,37.75-77.14,36.82-97.76-1.43-19.54-36.24,5.23-80.16,45.91-82.82Z"/>
    <path class="st3" d="M-73.21-952.34c44.67-4.23,66.03,52.1,30.18,78.17-32.64,23.74-77.13-6.95-67.04-46.12,4.33-16.83,19.43-30.4,36.86-32.05Z"/>
    <path class="st3" d="M-72.67-1083.81c42.59-3.96,64.65,48.96,31.86,76.62-23.18,19.55-59.13,8.59-68.48-19.79-8.58-26.05,9.2-54.28,36.63-56.83Z"/>
    <path class="st7" d="M-72.16-933.51c18.44-2.52,32.82,14.6,26.89,32.31-6.53,19.49-34.05,21.93-44.06,4.01-8.11-14.5.33-34.01,17.18-36.32Z"/>
    <path class="st7" d="M-71.07-1064.96c30.43-3.53,37.6,41.85,8.22,48.1-33.63,7.15-41.18-44.27-8.22-48.1Z"/>
    <path class="st5" d="M-71.09-920.59c17.77-3.06,19.02,21.92,3.56,23-14.25,1-16.66-20.74-3.56-23Z"/>
    <path class="st5" d="M-76.68-1048.75c10.38-10.46,26.8,4.19,17.3,15.44-10.66,12.62-28.01-4.65-17.3-15.44Z"/>
  </g>
  <g>
    <path class="st1" d="M88.77-1111.35c-1.34-1.7-3-3.49-4.43-5.17-1.15-1.35-2.36-1.9-2.71-3.91-.71-4.13,3.16-7.23,7.01-5.47,1.62.74,5.1,4.86,6.39,6.41,29.9,35.81,31.15,88.63,2.65,125.67-1.76,2.29-6.71,8.62-9.04,9.72-3.9,1.85-7.93-1.59-6.9-5.81.49-2,4.56-5.67,6.02-7.45,27.16-32.93,27.42-80.52,1.02-113.99Z"/>
    <path class="st1" d="M62.68-1001.51c-1.37-1.36-1.57-4.46-.64-6.12,4.54-4.88,8.89-9.8,12.15-15.67,13.41-24.09,10.38-53.15-7.5-74.01-1.11-1.3-4.79-4.64-5.09-5.95-.99-4.27,2.47-7.95,6.68-6.24,2.41.98,7.92,7.89,9.64,10.23,20.5,27.82,19.14,66.33-3.18,92.63-1.45,1.71-5.03,5.87-7.09,6.37-1.67.41-3.73-.02-4.96-1.25Z"/>
    <path class="st1" d="M50.21-1092.61c2.2-.11,3.45.77,4.9,2.26,17.4,18.01,18.62,48.26,2.53,67.49-.94,1.12-3.44,4.03-4.54,4.74-3.71,2.39-8.14-1.1-7.44-5.24.35-2.03,4.3-5.65,5.68-7.57,10.93-15.15,10.21-36.25-1.77-50.57-1.32-1.58-3.25-2.67-3.78-4.83-.74-3.02,1.2-6.11,4.41-6.27Z"/>
  </g>
  <g>
    <path class="st1" d="M-228.37-1111.35c1.34-1.7,3-3.49,4.43-5.17,1.15-1.35,2.36-1.9,2.71-3.91.71-4.13-3.16-7.23-7.01-5.47-1.62.74-5.1,4.86-6.39,6.41-29.9,35.81-31.15,88.63-2.65,125.67,1.76,2.29,6.71,8.62,9.04,9.72,3.9,1.85,7.93-1.59,6.9-5.81-.49-2-4.56-5.67-6.02-7.45-27.16-32.93-27.42-80.52-1.02-113.99Z"/>
    <path class="st1" d="M-202.28-1001.51c1.37-1.36,1.57-4.46.64-6.12-4.54-4.88-8.89-9.8-12.15-15.67-13.41-24.09-10.38-53.15,7.5-74.01,1.11-1.3,4.79-4.64,5.09-5.95.99-4.27-2.47-7.95-6.68-6.24-2.41.98-7.92,7.89-9.64,10.23-20.5,27.82-19.14,66.33,3.18,92.63,1.45,1.71,5.03,5.87,7.09,6.37,1.67.41,3.73-.02,4.96-1.25Z"/>
    <path class="st1" d="M-189.81-1092.61c-2.2-.11-3.45.77-4.9,2.26-17.4,18.01-18.62,48.26-2.53,67.49.94,1.12,3.44,4.03,4.54,4.74,3.71,2.39,8.14-1.1,7.44-5.24-.35-2.03-4.3-5.65-5.68-7.57-10.93-15.15-10.21-36.25,1.77-50.57,1.32-1.58,3.25-2.67,3.78-4.83.74-3.02-1.2-6.11-4.41-6.27Z"/>
  </g>
  <g>
    <path class="st11" d="M571.42-682.23c-15.85,0-30.59-8.51-39.44-22.78-62.09-100.16-175.12-282.58-234.52-379.04-9.82-15.95-10.17-36.15-.91-52.72,8.65-15.49,23.9-24.73,40.8-24.73,0,0,472.49,1.15,472.49,1.15,16.84.04,32.01,9.37,40.58,24.96,9.2,16.73,8.71,36.96-1.28,52.8l-238.38,377.85c-8.9,14.1-23.6,22.52-39.34,22.52Z"/>
    <path class="st6" d="M337.34-1152s.06,0,.09,0l472.37,1.15c29.88.07,48.04,36.63,31.29,63.18l-238.37,377.85c-7.61,12.06-19.46,18.09-31.3,18.09s-23.81-6.1-31.36-18.28c-56.34-90.89-173.91-280.63-234.51-379.02-16.52-26.83,1.83-62.97,31.79-62.97M337.34-1171h0c-20.39,0-38.74,11.07-49.09,29.6-10.93,19.57-10.5,43.46,1.12,62.33,59.45,96.53,172.46,278.93,234.54,379.06,10.59,17.08,28.35,27.27,47.51,27.27s36.73-10.07,47.37-26.95l238.37-377.85c11.83-18.76,12.44-42.69,1.57-62.44-10.26-18.66-28.54-29.83-48.88-29.88l-472.37-1.15h-.14Z"/>
  </g>
  <g>
    <path class="st1" d="M566.06-1075.67c72.5-1.45,117.05,75.65,82.15,139.02-32.95,59.84-124.83,60.63-159.24,1.7-35.91-61.52,5.68-139.29,77.08-140.72Z"/>
    <path class="st1" d="M567.01-1134.75c5.98-.67,9.14,3.33,9.56,8.9.66,8.81-.44,18.51-.1,27.41-1.24,10.27-14.75,10.59-16.66.72.97-9.37-1.33-21.53.08-30.57.55-3.54,3.65-6.07,7.12-6.46Z"/>
    <path class="st1" d="M464.94-1092.75c2.85-.46,4.95.09,7.18,1.83,7.11,5.55,13.64,14.77,20.7,20.69,5.74,7.19-2.95,17.09-10.84,12.42-.59-.35-1.69-1.33-2.27-1.84-3.79-3.26-18.05-17.04-20.12-20.64-2.77-4.82-.23-11.57,5.35-12.46Z"/>
    <path class="st1" d="M566.36-875.69c5.92-.93,9.76,2.89,10.2,8.6.56,7.16.54,19.39,0,26.56-.2,2.66-.91,5.34-3.02,7.09-4.9,4.05-13.03,1.31-13.74-5.2-1.02-9.43.75-20.68.03-30.31.75-3.26,3.09-6.21,6.53-6.74Z"/>
    <path class="st1" d="M485.49-909.82c6.9-.6,11.97,7.91,7.47,13.5-7.09,5.81-14.01,15.9-21.2,21.14-7.89,5.73-18.33-3.91-10.54-13.07,4.51-5.3,13.34-14.13,18.65-18.64,1.57-1.34,3.48-2.74,5.63-2.93Z"/>
    <path class="st1" d="M667.79-1092.75c7.75-1.24,12.79,6.75,8.37,13.11-2.36,3.41-17.7,18.7-21.14,21.2-8.07,5.87-17.15-3.64-11.87-11.55,6.81-6.13,13.29-14.78,20.29-20.47,1.16-.94,2.87-2.05,4.35-2.29Z"/>
    <path class="st1" d="M649.48-909.82c2.17-.14,4.23.85,5.9,2.15,7.16,5.6,13.77,14.86,20.83,20.87,5.18,8.29-3.92,17.51-12.24,11.29-7.22-5.4-14.39-15.26-21.2-21.45-3.44-5.27.7-12.47,6.71-12.86Z"/>
    <path class="st1" d="M422.92-991.33l31.7.06c8.31,2.29,7.96,14.53-.52,16.26l-31.42-.12c-8.52-2.46-8.32-14,.25-16.21Z"/>
    <path class="st1" d="M677.78-977.3c-4.72-4.79-1.98-12.91,4.5-14.08l31.18.05c8.47,2.1,8.32,14.52-.27,16.33-9.73-.72-21.09,1.06-30.62.03-1.54-.17-3.71-1.23-4.78-2.33Z"/>
    <path class="st10" d="M730.43-1138.63c.04.39-.69.62-.99.74-.96.39-2.6.99-3.43.04-.25-1.3,3.64-.64,4.42-.78Z"/>
    <path class="st8" d="M565.12-1058.61c39.68-1.63,71.82,25.23,77.74,64.25,9.58,63.16-58.96,109.12-113.79,76.19-63.61-38.21-40.02-137.31,36.05-140.44Z"/>
    <path class="st1" d="M566.36-1047.88c4.71-.79,14.94,1.24,19.74,2.54,65.78,17.82,60.88,116.5-9.44,126.24-6.49.9-14.02,2.36-16.64-5.38-.5-38.75-.07-77.59-.22-116.37.35-3.12,3.44-6.51,6.55-7.03Z"/>
    <path class="st8" d="M576.56-935.8v-94.78c28.97,5.12,45.68,33.7,37.37,61.85-5.14,17.4-19.61,29.71-37.37,32.93Z"/>
  </g>
  <g>
    <path class="st0" d="M1361.36-1025.31c-.63-12.18-9.38-23.83-21.79-25.79-10.39-1.64-29.4,1.97-37.78-.52-6.88-2.04-20.46-25.15-33.01-28.5-11.45-3.06-42.39-2.12-55.09-1.09-5.29.43-11.83.77-16.42,3.31-7.46,4.12-24.21,25.08-28.26,26.29-8.39,2.49-27.39-1.12-37.78.52-13.71,2.16-20.78,14.08-21.8,26.95-2.2,27.89-1.95,74.17-.01,102.23,1.03,14.87,8.1,26.38,23.8,28.43,69.75-.63,139.73,1.03,209.34-.84,12.08-3.91,17.86-14.16,18.83-26.44,2.64-33.6-2.09-70.57,0-104.54ZM1270.17-931.87c-26.46,21.05-64.82,13.03-82-15.45-20.66-34.25,1.05-79.24,40.57-84.02,56.1-6.77,86.12,63.9,41.44,99.46Z"/>
    <path class="st0" d="M1228.69-1012.81c52.02-8.17,59.62,66.64,14.53,73.72-52.07,8.18-59.51-66.66-14.53-73.72Z"/>
  </g>
  <g>
    <g>
      <path class="st11" d="M-695.43-682.23c-15.85,0-30.59-8.51-39.44-22.78-62.07-100.13-175.07-282.51-234.52-379.04-9.82-15.95-10.17-36.15-.91-52.72,8.65-15.49,23.9-24.73,40.8-24.73,0,0,472.49,1.15,472.49,1.15,16.84.04,32.01,9.37,40.58,24.96,9.2,16.73,8.71,36.96-1.28,52.8l-238.38,377.85c-8.9,14.1-23.6,22.52-39.34,22.52Z"/>
      <path class="st6" d="M-929.51-1152s.06,0,.09,0l472.37,1.15c29.88.07,48.04,36.63,31.29,63.18l-238.37,377.85c-7.61,12.06-19.46,18.09-31.3,18.09s-23.81-6.1-31.36-18.28c-56.34-90.89-173.91-280.63-234.51-379.02-16.52-26.83,1.83-62.97,31.79-62.97M-929.51-1171h0c-20.39,0-38.74,11.07-49.09,29.6-10.93,19.57-10.5,43.46,1.12,62.33,59.47,96.56,172.47,278.94,234.54,379.06,10.59,17.08,28.35,27.27,47.51,27.27s36.73-10.07,47.37-26.95l238.37-377.85c11.83-18.76,12.44-42.69,1.57-62.44-10.26-18.66-28.54-29.83-48.88-29.88l-472.37-1.15h-.14Z"/>
    </g>
    <path class="st12" d="M-819.41-846.33c-.18-19.45.92-40.12,8.86-58.11,8.98-20.36,26.66-31.71,47.52-37.7,2.44-.7,15.37-3.03,15.9-3.64.24-.27,1.06-5.44,1.71-6.94,1.21-2.78,3.82-5.6,6.58-6.88,1.75-.81,6.74-1.41,7.11-2.5l.64-15.19c-5.56-3.55-8.83-6.98-10-13.73-.35-2.04.2-4.35-.3-6.11-.43-1.52-8.4-10.25-10.22-13.48-4.03-7.12-6.04-14.16-4.2-22.36.6-2.67,2.31-5.17,2.44-7.85.38-7.79-3.16-19.2-3.28-27.6-.02-1.65.48-9.96.71-11.47.1-.65,2.99-9.73,3.24-10.21,1.45-2.83,6.81-3.28,7.03-7.12.15-2.72-2.5-3.81-.06-6.09-4.27.09-4.35,2.29-3.21,5.76-6.47-4.82.22-6.32,3.17-8.69s5.77-6.04,9.63-7.03,10.04.59,13.05-.4c1.21-.4,1.35-2.43,2.37-3.39,1.45-1.37,4.52-1.69,6.31-2.66,4.63-2.49,6.61-7.67,11.92-.91,1.46-1.27.74-3.44,2.26-4.78,3.88-3.42,14.52,3.58,19.39,3.64,1.7.35,3.33,2.55,4.77,2.92,3.66.94,8.14-.47,11.06,3.99l-7.69-.63c.08.58-.18,1.43.08,1.84.41.65,7.95,3.1,9.33,3.81,5.14,2.65,20.59,12.71,22.96,17.41.4.79,1.93,5.45,1.59,5.77l-4.49.33c1.03,2.88,2.86,5.53,3.66,8.51.43,1.58,2.9,12.5,2.75,13.16-.12.51-1.27.19-1.36,1.37-.21,2.82,1.2,6.04.67,9.6-.59,3.97-3.12,9.02-3.18,13.53-.04,2.63,1.57,4.67,1.89,7.07,1.47,10.98-1.88,19.16-7.75,28.02-1.21,1.83-4.57,4.98-5.16,6.37-1.28,3-.78,8.66-2.74,13.28-1.39,3.29-5.74,7.91-6.43,10.24-1.05,3.55-.02,10.1-.93,14.12,8.61-.23,14.71,7.05,14.78,15.34,20.64,3.5,42.89,11.1,55.94,28.32,15.16,20.01,16.65,46.78,16.4,71.07h-244.75Z"/>
  </g>
  <path class="st6" d="M-587.43-1016.34v-8.42c0-5.27.37-8.88,1.02-11.01,2.04-5.92,6.85-10.55,14.43-13.88l5.74-2.5c4.72-2.13,7.77-4.44,9.07-7.12.83-1.94,1.2-5,1.2-9.16v-19.33h-12.67v14.25h-27.47v-12.58c-.09-10.82,1.94-17.85,5.92-21.28,2.41-1.94,6.01-3.24,10.92-3.7,2.59-.28,5.64-.46,9.25-.46h13.88c11.01,0,18.13.83,21.46,2.41,6.01,2.78,8.97,9.71,8.88,20.91v14.71c.19,11.38-1.02,19.43-3.7,23.96-3.33,4.53-8.79,8.51-16.28,11.75-3.24,1.57-5.37,3.05-6.57,4.63-1.76,2.31-2.78,5.18-2.96,8.6-.09,1.39-.09,4.07-.09,8.23h-32.01ZM-587.43-1005.43h32.01v20.17h-32.01v-20.17Z"/>
  <path class="st6" d="M-809.89-1079.88v8.42c0,5.27-.37,8.88-1.02,11.01-2.04,5.92-6.85,10.55-14.43,13.88l-5.74,2.5c-4.72,2.13-7.77,4.44-9.07,7.12-.83,1.94-1.2,5-1.2,9.16v19.33h12.67v-14.25h27.47v12.58c.09,10.82-1.94,17.85-5.92,21.28-2.41,1.94-6.01,3.24-10.92,3.7-2.59.28-5.64.46-9.25.46h-13.88c-11.01,0-18.13-.83-21.46-2.41-6.01-2.78-8.97-9.71-8.88-20.91v-14.71c-.19-11.38,1.02-19.43,3.7-23.96,3.33-4.53,8.79-8.51,16.28-11.75,3.24-1.57,5.37-3.05,6.57-4.63,1.76-2.31,2.78-5.18,2.96-8.6.09-1.39.09-4.07.09-8.23h32.01ZM-809.89-1090.8h-32.01v-20.17h32.01v20.17Z"/>
  <g>
    <g>
      <path class="st11" d="M428.52,721.29c-22.19,0-42.85-11.97-55.28-32.01C279.82,538.58,109.74,264.06,20.25,118.77c-13.87-22.52-14.36-51.07-1.27-74.5C31.14,22.5,52.53,9.5,76.2,9.5l711.17,1.74c23.58.06,44.85,13.17,56.89,35.08,13.01,23.65,12.32,52.24-1.79,74.6l-358.8,568.73c-12.51,19.82-33.12,31.66-55.15,31.66Z"/>
      <path class="st6" d="M76.2,19s.09,0,.14,0l711.01,1.74c44.97.11,72.31,55.13,47.1,95.1l-358.8,568.73c-11.45,18.15-29.3,27.23-47.12,27.23s-35.83-9.18-47.2-27.52C296.52,547.47,119.55,261.88,28.34,113.79,3.47,73.4,31.09,19,76.2,19M76.2,0h0C49.04,0,24.55,14.82,10.69,39.64c-14.76,26.43-14.19,58.66,1.48,84.11,89.42,145.2,259.55,419.78,353.01,570.54,14.17,22.86,37.85,36.51,63.35,36.51s48.93-13.49,63.19-36.09L850.51,125.98c15.95-25.28,16.75-57.56,2.07-84.24-13.74-24.98-38.11-39.93-65.19-40L76.38,0h-.18Z"/>
    </g>
    <g>
      <path class="st6" d="M227.36,107.59v29.25h-33.38v23.34h33.38v29.25h-33.38v23.34h33.38v29.25h-33.78c-12.21-.1-19.6-.59-22.26-1.48-5.61-1.77-9.16-5.81-10.73-12.11-1.87-6.99-2.76-18.61-2.66-34.86v-42.84c0-8.37,1.08-21.86,2.17-26.49,1.48-6.21,4.04-10.54,7.78-13,2.66-1.67,5.42-2.66,8.37-2.95,3.25-.3,8.96-.59,17.33-.69h33.78Z"/>
      <path class="st6" d="M271.78,107.59c1.67,6.2,2.86,12.11,3.55,17.63,1.87-7.39,4.92-12.31,9.26-14.87,3.15-1.87,8.27-2.76,15.46-2.76,8.17,0,13.59.79,16.35,2.46,4.63,2.86,7.48,7.58,8.67,14.08.29,1.67.49,10.73.59,27.08v90.8h-36.04v-93.06c0-7.19-2.46-10.73-7.39-10.73s-7.39,3.74-7.39,11.23v92.57h-36.04v-103.8c0-11.23-1.08-21.47-3.35-30.63h36.34Z"/>
      <path class="st6" d="M401.09,107.59v29.25h-16.35v105.18h-36.04v-105.18h-16.35v-29.25h68.74Z"/>
      <path class="st6" d="M407.59,107.59h55.15c8.17,0,13.79.2,17.04.59,6.5.79,10.73,4.14,12.7,9.95,1.48,4.23,2.26,9.36,2.36,15.36v8.67c0,6.01-.2,10.24-.49,12.7-.98,6.79-3.54,11.72-7.78,14.77-2.46,1.67-6.2,2.86-11.42,3.45,5.32,1.58,9.16,3.15,11.62,4.73,5.71,4.04,8.37,10.93,8.08,20.88v20.78c.1,9.16.99,16.74,2.86,22.55h-36.14c-1.87-5.71-2.86-13.29-2.76-22.65v-17.92c-.1-4.83-1.08-8.08-3.05-9.75-1.87-1.48-4.33-2.27-7.58-2.27h-4.53v52.59h-36.04V107.59ZM443.63,160.18h5.12c4.04,0,6.7-.59,7.88-1.87,1.58-1.67,2.36-4.92,2.36-9.85s-1.08-8.17-3.25-10.04c-1.28-1.08-3.64-1.67-6.99-1.67h-5.12v23.44Z"/>
      <path class="st6" d="M543.89,213.65v28.36h-36.04v-106.95c-.1-10.93,1.97-18.42,6.2-22.45,2.86-2.36,7.88-3.84,14.97-4.43,4.04-.39,9.16-.59,15.17-.59h14.67c8.96,0,15.76.39,20.19,1.08,4.43.79,7.78,2.07,9.85,3.94,4.33,4.04,6.4,11.52,6.3,22.45v106.95h-36.04v-28.36h-15.26ZM543.89,183.72h15.26v-35.55c0-8.17-2.56-12.31-7.68-12.31s-7.58,4.14-7.58,12.31v35.55Z"/>
      <path class="st6" d="M608.1,107.59h55.15c8.17,0,13.79.2,17.04.59,6.5.79,10.73,4.14,12.7,9.95,1.48,4.23,2.26,9.36,2.36,15.36v8.67c0,6.01-.2,10.24-.49,12.7-.98,6.79-3.54,11.72-7.78,14.77-2.46,1.67-6.2,2.86-11.42,3.45,5.32,1.58,9.16,3.15,11.62,4.73,5.71,4.04,8.37,10.93,8.08,20.88v20.78c.1,9.16.99,16.74,2.86,22.55h-36.14c-1.87-5.71-2.86-13.29-2.76-22.65v-17.92c-.1-4.83-1.08-8.08-3.05-9.75-1.87-1.48-4.33-2.27-7.58-2.27h-4.53v52.59h-36.04V107.59ZM644.14,160.18h5.12c4.04,0,6.7-.59,7.88-1.87,1.58-1.67,2.36-4.92,2.36-9.85s-1.08-8.17-3.25-10.04c-1.28-1.08-3.64-1.67-6.99-1.67h-5.12v23.44Z"/>
    </g>
  </g>
</svg>