<?xml version="1.0" encoding="UTF-8"?><svg id="Capa_1" xmlns="http://www.w3.org/2000/svg" viewBox="0 0 586.14 498.27"><defs><style>.cls-1{fill:#030304;}.cls-2{fill:#f7f6f6;}.cls-3{fill:#f6f5f6;}.cls-4{fill:#f7f5f6;}.cls-5{fill:#1d1d1b;}.cls-6{stroke-width:.5px;}.cls-6,.cls-7,.cls-8{stroke:#1d1d1b;stroke-miterlimit:10;}.cls-6,.cls-8{fill:#020203;}.cls-9{fill:#fff;}.cls-7{fill:#010101;stroke-width:3px;}.cls-8{stroke-width:12px;}</style></defs><path class="cls-9" d="M291.08,488.77c-15.85,0-30.59-8.51-39.44-22.78C189.57,365.87,76.57,183.49,17.12,86.95c-9.82-15.95-10.17-36.15-.91-52.72,8.65-15.49,23.9-24.73,40.8-24.73,0,0,472.49,1.15,472.49,1.15,16.84.04,32.01,9.37,40.58,24.96,9.2,16.73,8.71,36.96-1.28,52.8l-238.38,377.85c-8.9,14.1-23.6,22.52-39.34,22.52Z"/><path class="cls-5" d="M57,19s.06,0,.09,0l472.37,1.15c29.88.07,48.04,36.63,31.29,63.18l-238.37,377.85c-7.61,12.06-19.46,18.09-31.3,18.09s-23.81-6.1-31.36-18.28C203.37,370.1,85.8,180.36,25.21,81.97c-16.52-26.83,1.83-62.97,31.79-62.97M57,0h0C36.61,0,18.26,11.07,7.91,29.6c-10.93,19.57-10.5,43.46,1.12,62.33,59.43,96.5,172.46,278.92,234.54,379.06,10.59,17.08,28.35,27.27,47.51,27.27s36.73-10.07,47.37-26.95l238.37-377.85c11.83-18.76,12.44-42.69,1.57-62.44-10.26-18.66-28.54-29.83-48.88-29.88L57.14,0h-.14Z"/><path class="cls-1" d="M311.91,348.34h-37.66v13.2c0,2.97-4.33,7.67-7.39,8.23-4.84.88-22.05.66-27.34.15-10.8-1.04-7.81-14.8-8.55-22.15-10.73-2.71-18.84-10.88-20.61-21.93l-.16-257.42c.82-11.67,8.93-21.21,20.25-23.91l123.73-.07c11.55,1.39,20.48,11.5,21.76,22.93l-.05,258.01c-1.69,11.29-9.71,19.64-20.69,22.38-.69,7.32,2.17,21.15-8.55,22.15-5.37.5-22.44.74-27.34-.15-2.52-.46-5.1-2.91-6.18-5.12-.2-.42-1.21-2.94-1.21-3.1v-13.2Z"/><path class="cls-9" d="M235.76,344.93c-.2,0-.39,0-.59-.02-11.05-.69-20.08-9.03-21.48-19.84-.05-.4-.08-.81-.08-1.22V68.42c0-.28.02-.56.04-.84.85-9.5,7.79-17.46,17.28-19.81.74-.18,1.51-.28,2.27-.28,0,0,118.79-.13,118.79-.13.49,0,.98.04,1.46.11,10.31,1.6,18.14,9.87,19.05,20.11.02.28.04.56.04.84v255.96c0,.76-.1,1.52-.28,2.26-2.53,10.36-10.6,17.35-21.05,18.26-.27.02-.55.04-.82.04h-114.64Z"/><path class="cls-5" d="M352,56.86c5.87.91,10.52,5.56,11.05,11.56v255.96c-1.56,6.35-6.09,10.48-12.65,11.05h-114.64c-6.36-.4-11.82-5.17-12.65-11.57V68.42c.51-5.59,4.78-10.11,10.11-11.43l118.78-.13M352,37.86s-.01,0-.02,0l-118.78.13c-1.53,0-3.06.19-4.55.56-13.42,3.33-23.25,14.65-24.46,28.19-.05.56-.08,1.12-.08,1.69v255.43c0,.82.05,1.63.15,2.44,1.98,15.31,14.73,27.12,30.31,28.1.39.02.79.04,1.18.04h114.64c.55,0,1.09-.02,1.64-.07,14.64-1.27,25.92-11.03,29.45-25.47.36-1.48.54-2.99.54-4.51V68.43c0-.56-.02-1.13-.07-1.69-1.3-14.59-12.42-26.37-27.05-28.65-.97-.15-1.94-.23-2.92-.23h0Z"/><rect class="cls-3" x="243.58" y="348.34" width="17.76" height="9.16"/><rect class="cls-4" x="324.83" y="348.34" width="17.76" height="9.16"/><path class="cls-8" d="M288.13,205.73c44.66-3.86,75.76,44.05,53.81,83.51-19.92,35.81-71.44,38.27-94.81,4.64-24.57-35.35-1.54-84.48,41-88.15Z"/><path class="cls-8" d="M289.74,74.26c44.35-2.91,73.91,45.63,51.85,84.25-21.55,37.75-77.14,36.82-97.76-1.43-19.54-36.24,5.23-80.16,45.91-82.82Z"/><path class="cls-2" d="M288.13,218.66c44.67-4.23,66.03,52.1,30.18,78.17-32.64,23.74-77.13-6.95-67.04-46.12,4.33-16.83,19.43-30.4,36.86-32.05Z"/><path class="cls-2" d="M288.67,87.2c42.59-3.96,64.65,48.96,31.86,76.62-23.18,19.55-59.13,8.59-68.48-19.79-8.58-26.05,9.2-54.28,36.63-56.83Z"/><path class="cls-6" d="M289.19,237.49c18.44-2.52,32.82,14.6,26.89,32.31-6.53,19.49-34.05,21.93-44.06,4.01-8.11-14.5.33-34.01,17.18-36.32Z"/><path class="cls-6" d="M290.27,106.04c30.43-3.53,37.6,41.85,8.22,48.1-33.63,7.15-41.18-44.27-8.22-48.1Z"/><path class="cls-4" d="M290.25,250.41c17.77-3.06,19.02,21.92,3.56,23-14.25,1-16.66-20.74-3.56-23Z"/><path class="cls-4" d="M284.66,122.25c10.38-10.46,26.8,4.19,17.3,15.44-10.66,12.62-28.01-4.65-17.3-15.44Z"/><path class="cls-7" d="M450.11,59.66c-1.34-1.7-3-3.49-4.43-5.17-1.15-1.35-2.36-1.9-2.71-3.91-.71-4.13,3.16-7.23,7.01-5.47,1.62.74,5.1,4.86,6.39,6.41,29.9,35.81,31.15,88.63,2.65,125.67-1.76,2.29-6.71,8.62-9.04,9.72-3.9,1.85-7.93-1.59-6.9-5.81.49-2,4.56-5.67,6.02-7.45,27.16-32.93,27.42-80.52,1.02-113.99Z"/><path class="cls-7" d="M424.02,169.49c-1.37-1.36-1.57-4.46-.64-6.12,4.54-4.88,8.89-9.8,12.15-15.67,13.41-24.09,10.38-53.15-7.5-74.01-1.11-1.3-4.79-4.64-5.09-5.95-.99-4.27,2.47-7.95,6.68-6.24,2.41.98,7.92,7.89,9.64,10.23,20.5,27.82,19.14,66.33-3.18,92.63-1.45,1.71-5.03,5.87-7.09,6.37-1.67.41-3.73-.02-4.96-1.25Z"/><path class="cls-7" d="M411.56,78.4c2.2-.11,3.45.77,4.9,2.26,17.4,18.01,18.62,48.26,2.53,67.49-.94,1.12-3.44,4.03-4.54,4.74-3.71,2.39-8.14-1.1-7.44-5.24.35-2.03,4.3-5.65,5.68-7.57,10.93-15.15,10.21-36.25-1.77-50.57-1.32-1.58-3.25-2.67-3.78-4.83-.74-3.02,1.2-6.11,4.41-6.27Z"/><path class="cls-7" d="M132.97,59.66c1.34-1.7,3-3.49,4.43-5.17,1.15-1.35,2.36-1.9,2.71-3.91.71-4.13-3.16-7.23-7.01-5.47-1.62.74-5.1,4.86-6.39,6.41-29.9,35.81-31.15,88.63-2.65,125.67,1.76,2.29,6.71,8.62,9.04,9.72,3.9,1.85,7.93-1.59,6.9-5.81-.49-2-4.56-5.67-6.02-7.45-27.16-32.93-27.42-80.52-1.02-113.99Z"/><path class="cls-7" d="M159.06,169.49c1.37-1.36,1.57-4.46.64-6.12-4.54-4.88-8.89-9.8-12.15-15.67-13.41-24.09-10.38-53.15,7.5-74.01,1.11-1.3,4.79-4.64,5.09-5.95.99-4.27-2.47-7.95-6.68-6.24-2.41.98-7.92,7.89-9.64,10.23-20.5,27.82-19.14,66.33,3.18,92.63,1.45,1.71,5.03,5.87,7.09,6.37,1.67.41,3.73-.02,4.96-1.25Z"/><path class="cls-7" d="M171.53,78.4c-2.2-.11-3.45.77-4.9,2.26-17.4,18.01-18.62,48.26-2.53,67.49.94,1.12,3.44,4.03,4.54,4.74,3.71,2.39,8.14-1.1,7.44-5.24-.35-2.03-4.3-5.65-5.68-7.57-10.93-15.15-10.21-36.25,1.77-50.57,1.32-1.58,3.25-2.67,3.78-4.83.74-3.02-1.2-6.11-4.41-6.27Z"/></svg>