<?xml version="1.0" encoding="UTF-8"?><svg id="Capa_1" xmlns="http://www.w3.org/2000/svg" viewBox="0 0 595.28 503.9"><defs><style>.cls-1{fill:#1d1d1b;}.cls-2{fill:#fff;}.cls-3{fill:#010101;stroke:#1d1d1b;stroke-miterlimit:10;stroke-width:3px;}</style></defs><path class="cls-2" d="M295.65,492.78c-15.85,0-30.59-8.51-39.44-22.78C194.13,369.85,81.11,187.44,21.69,90.96c-9.82-15.95-10.17-36.15-.91-52.72,8.65-15.49,23.9-24.73,40.8-24.73,0,0,472.49,1.15,472.49,1.15,16.84.04,32.01,9.37,40.58,24.96,9.2,16.73,8.71,36.96-1.28,52.8l-238.37,377.85c-8.9,14.1-23.6,22.52-39.34,22.52Z"/><path class="cls-1" d="M61.57,23.01s.06,0,.09,0l472.37,1.15c29.88.07,48.04,36.63,31.29,63.18l-238.37,377.85c-7.61,12.06-19.46,18.09-31.3,18.09s-23.81-6.1-31.36-18.28C207.95,374.11,90.37,184.37,29.78,85.98c-16.52-26.83,1.83-62.97,31.79-62.97M61.57,4.01h0c-20.39,0-38.74,11.07-49.09,29.6-10.93,19.57-10.5,43.46,1.12,62.33,59.45,96.53,172.46,278.93,234.54,379.06,10.59,17.08,28.35,27.27,47.51,27.27s36.73-10.07,47.37-26.95l238.37-377.85c11.83-18.76,12.44-42.69,1.57-62.44-10.26-18.66-28.54-29.83-48.88-29.88L61.71,4.01h-.14Z"/><path class="cls-3" d="M226.81,277.77l100.02-55.87c9.05-5.05,9.05-18.07,0-23.13l-100.02-55.87c-4.19-2.34-6.79-6.76-6.79-11.56h0c0-10.19,11.03-16.57,19.86-11.47l128.74,74.28c4.1,2.37,6.63,6.74,6.63,11.47v9.44c0,4.73-2.53,9.11-6.63,11.47l-128.74,74.28c-8.83,5.09-19.86-1.28-19.86-11.47h0c0-4.8,2.6-9.22,6.79-11.56Z"/></svg>