<?xml version="1.0" encoding="UTF-8"?><svg id="Capa_1" xmlns="http://www.w3.org/2000/svg" viewBox="0 0 595.28 503.9"><defs><style>.cls-1{fill:#1d1d1b;}.cls-2{fill:#fff;}.cls-3{fill:#010101;stroke:#1d1d1b;stroke-miterlimit:10;stroke-width:3px;}</style></defs><path class="cls-2" d="M299.65,492.78c-15.85,0-30.59-8.51-39.44-22.78C198.14,369.85,85.12,187.44,25.7,90.96c-9.82-15.95-10.17-36.15-.91-52.72,8.65-15.49,23.9-24.73,40.8-24.73,0,0,472.49,1.15,472.49,1.15,16.84.04,32.01,9.37,40.58,24.96,9.2,16.73,8.71,36.96-1.28,52.8l-238.37,377.85c-8.9,14.1-23.6,22.52-39.34,22.52Z"/><path class="cls-1" d="M65.58,23.01s.06,0,.09,0l472.37,1.15c29.88.07,48.04,36.63,31.29,63.18l-238.37,377.85c-7.61,12.06-19.46,18.09-31.3,18.09s-23.81-6.1-31.36-18.28C211.95,374.11,94.38,184.37,33.78,85.98c-16.52-26.83,1.83-62.97,31.79-62.97M65.58,4.01h0c-20.39,0-38.74,11.07-49.09,29.6-10.93,19.57-10.5,43.46,1.12,62.33,59.45,96.53,172.46,278.93,234.54,379.06,10.59,17.08,28.35,27.27,47.51,27.27s36.73-10.07,47.37-26.95l238.37-377.85c11.83-18.76,12.44-42.69,1.57-62.44-10.26-18.66-28.54-29.83-48.88-29.88l-472.37-1.15h-.14Z"/><path class="cls-3" d="M228.58,287.56l51.69-78.77-49.11-75.74c-5.56-8.58.59-19.91,10.82-19.91h1.45c4.48,0,8.65,2.33,10.99,6.15l42.82,69.76,44.95-69.98c2.37-3.69,6.46-5.93,10.85-5.93h0c10.31,0,16.45,11.49,10.73,20.06l-50.48,75.59,53.3,78.61c5.81,8.56-.33,20.14-10.67,20.14h-1.3c-4.41,0-8.51-2.25-10.88-5.97l-46.5-73.02-46.8,73.05c-2.37,3.7-6.46,5.94-10.86,5.94h-.22c-10.26,0-16.41-11.4-10.78-19.97Z"/></svg>