<?xml version="1.0" encoding="UTF-8"?>
<svg id="Capa_1" xmlns="http://www.w3.org/2000/svg" version="1.1" viewBox="0 0 1234.14 361.74">
  <!-- Generator: Adobe Illustrator 30.0.0, SVG Export Plug-In . SVG Version: 2.1.1 Build 123)  -->
  <defs>
    <style>
      .st0 {
        fill: #fded58;
      }
    </style>
  </defs>
  <g>
    <path class="st0" d="M119.53,150.88h-12.62c-10.27-.09-17.59-2-21.94-5.75-7.05-6.18-10.45-21.24-10.27-45.36v-21.42c0-14.54,1.13-22.99,3.92-30.39,2.7-6.7,6.88-11.14,12.54-13.32,4.35-1.74,9.58-2.61,15.76-2.61h13.67c8.27.09,14.54,1.39,18.81,4,6.18,3.74,10.1,11.14,11.67,22.29.7,5.57,1.04,12.89,1.04,21.94v28.12c-.17,14.45-1.65,24.38-4.53,29.69-2.18,4.61-5.22,7.92-9.05,10.1v6.88c-.17,3.31,1.57,4.96,5.22,5.05h8.36v19.33h-18.98c-3.83,0-6.44-.26-7.84-.7-3.13-1.13-4.96-3.48-5.4-6.97-.26-1.39-.35-3.48-.35-6.27v-14.63ZM120.23,65.99c0-3.22-.61-5.57-1.92-7.05-1.39-1.48-3.05-2.26-4.88-2.26-2.18,0-4,.96-5.4,2.96-.96,1.39-1.48,3.48-1.48,6.36v51.28c0,3.22.7,5.57,2,7.05,1.39,1.57,3.05,2.35,4.88,2.35,2.18,0,3.92-.96,5.31-2.96.96-1.39,1.48-3.57,1.48-6.44v-51.28Z"/>
    <path class="st0" d="M207.55,32.04h31.87v94.55c.09,9.66-1.74,16.28-5.49,19.85-2.52,2.09-6.97,3.4-13.23,3.92-3.83.35-8.27.52-13.32.52h-13.06c-7.92,0-13.93-.35-17.85-1.04-3.92-.61-6.88-1.74-8.79-3.4-3.74-3.57-5.57-10.19-5.49-19.85V32.04h31.87v82.89c0,7.31,2.26,10.97,6.7,10.97s6.79-3.66,6.79-10.97V32.04Z"/>
    <path class="st0" d="M311.25,32.04v25.86h-29.51v20.63h29.51v25.86h-29.51v20.63h29.51v25.86h-29.86c-10.8-.09-17.33-.52-19.68-1.31-4.96-1.57-8.1-5.14-9.49-10.71-1.65-6.18-2.44-16.46-2.35-30.82v-37.87c0-7.4.96-19.33,1.92-23.42,1.31-5.49,3.57-9.32,6.88-11.49,2.35-1.48,4.79-2.35,7.4-2.61,2.87-.26,7.92-.52,15.32-.61h29.86ZM279.64,0h28.64l-16.89,26.03h-22.2l10.45-26.03Z"/>
    <path class="st0" d="M363.57,32.04h31.87v46.49h13.58v-46.49h31.87v118.84h-31.87v-46.49h-13.58v46.49h-31.87V32.04Z"/>
    <path class="st0" d="M484.42,125.81v25.07h-31.87V56.33c-.09-9.66,1.74-16.28,5.49-19.85,2.52-2.09,6.97-3.4,13.23-3.92,3.57-.35,8.1-.52,13.41-.52h12.97c7.92,0,13.93.35,17.85.96,3.92.7,6.88,1.83,8.71,3.48,3.83,3.57,5.66,10.19,5.57,19.85v94.55h-31.87v-25.07h-13.5ZM484.42,99.34h13.5v-31.43c0-7.23-2.26-10.88-6.79-10.88s-6.7,3.66-6.7,10.88v31.43Z"/>
    <path class="st0" d="M538.83,32.04h31.87v39.27c0,7.23.17,12.36.61,15.41.61,3.83,2.61,7.57,5.83,11.14,3.22-3.57,5.22-7.31,5.83-11.14.44-3.13.61-8.27.61-15.41v-39.27h31.87v42.4c.09,1.65.09,2.79.09,3.22,0,10.19-2.7,19.5-8.18,27.86-3.92,6.01-8.71,10.88-14.28,14.54v30.82h-31.87v-30.82c-6.36-4.18-11.67-9.84-15.85-17.06-4.44-7.57-6.62-15.85-6.62-24.81l.09-7.49v-38.66Z"/>
    <path class="st0" d="M666.82,32.04h45.1c6.18.09,10.01.09,11.67.17,10.1.44,16.28,4.27,18.54,11.67,1.31,3.66,2,13.06,2.18,28.12v32.04c0,13.32-.52,22.99-1.57,29.17-1.04,6.18-2.87,10.53-5.57,13.15-2.52,2.52-6.01,3.92-10.45,4.18-.78.09-5.75.17-14.8.35h-45.1V32.04ZM698.68,124.68h5.75c3.22,0,5.31-.61,6.27-1.74,1.13-1.31,1.65-4.27,1.74-8.71v-45.88c-.09-4.53-.61-7.4-1.74-8.71-.96-1.13-3.05-1.74-6.27-1.74h-5.75v66.78Z"/>
    <path class="st0" d="M815,32.04v25.86h-29.51v20.63h29.51v25.86h-29.51v20.63h29.51v25.86h-29.86c-10.8-.09-17.33-.52-19.68-1.31-4.96-1.57-8.1-5.14-9.49-10.71-1.65-6.18-2.44-16.46-2.35-30.82v-37.87c0-7.4.96-19.33,1.92-23.42,1.31-5.49,3.57-9.32,6.88-11.49,2.35-1.48,4.79-2.35,7.4-2.61,2.87-.26,7.92-.52,15.32-.61h29.86Z"/>
    <path class="st0" d="M880.21,32.04v25.86h-14.45v92.99h-31.87V57.9h-14.45v-25.86h60.77Z"/>
    <path class="st0" d="M885.96,32.04h48.76c7.23,0,12.19.17,15.06.52,5.75.7,9.49,3.66,11.23,8.79,1.31,3.74,2,8.27,2.09,13.58v7.66c0,5.31-.17,9.05-.44,11.23-.87,6.01-3.13,10.36-6.88,13.06-2.18,1.48-5.49,2.52-10.1,3.05,4.7,1.39,8.1,2.79,10.27,4.18,5.05,3.57,7.4,9.66,7.14,18.46v18.37c.09,8.1.87,14.8,2.52,19.94h-31.95c-1.65-5.05-2.52-11.75-2.44-20.02v-15.85c-.09-4.27-.96-7.14-2.7-8.62-1.65-1.31-3.83-2-6.7-2h-4v46.49h-31.87V32.04ZM917.82,78.53h4.53c3.57,0,5.92-.52,6.97-1.65,1.39-1.48,2.09-4.35,2.09-8.71s-.96-7.23-2.87-8.88c-1.13-.96-3.22-1.48-6.18-1.48h-4.53v20.72Z"/>
    <path class="st0" d="M1006.46,125.81v25.07h-31.87V56.33c-.09-9.66,1.74-16.28,5.49-19.85,2.52-2.09,6.97-3.4,13.23-3.92,3.57-.35,8.1-.52,13.41-.52h12.97c7.92,0,13.93.35,17.85.96,3.92.7,6.88,1.83,8.71,3.48,3.83,3.57,5.66,10.19,5.57,19.85v94.55h-31.87v-25.07h-13.5ZM1009.94,0h28.64l-16.89,26.03h-22.2l10.45-26.03ZM1006.46,99.34h13.5v-31.43c0-7.23-2.26-10.88-6.79-10.88s-6.7,3.66-6.7,10.88v31.43Z"/>
    <path class="st0" d="M1119.81,32.04v25.86h-28.03v20.63h5.75c7.05.09,12.1.78,14.98,2.18,4.61,2.09,7.66,6.36,9.23,12.89.78,3.31,1.22,8.79,1.31,16.46v7.31c-.26,10.01-.61,16.02-1.22,17.85-1.65,8.45-5.92,13.41-12.8,14.89-2.26.44-8.53.7-18.89.78h-29.78v-25.86h29.95v-20.63h-4.96c-5.92,0-10.19-.44-12.71-1.31-3.92-1.31-6.79-3.4-8.62-6.09-2.18-3.48-3.48-8.36-3.92-14.63-.09-1.92-.17-5.4-.17-10.53v-7.31c.09-10.1.96-16.98,2.44-20.63,1.65-4.44,3.92-7.49,6.97-9.14,2.7-1.57,6.79-2.44,12.45-2.61,2-.09,5.57-.09,10.53-.09h27.51Z"/>
  </g>
  <path class="st0" d="M116.56,190.89h64.36c8.82.12,14.29.12,16.65.25,14.41.62,23.24,6.09,26.47,16.65,1.86,5.22,2.86,18.64,3.11,40.13v45.73c0,19.01-.75,32.8-2.24,41.63-1.49,8.82-4.1,15.03-7.95,18.76-3.6,3.6-8.57,5.59-14.91,5.96-1.12.12-8.2.25-21.12.5h-64.36v-169.61ZM162.04,323.1h8.2c4.6,0,7.58-.87,8.95-2.49,1.62-1.86,2.36-6.09,2.49-12.43v-65.48c-.12-6.46-.87-10.56-2.49-12.43-1.37-1.62-4.35-2.49-8.95-2.49h-8.2v95.3Z"/>
  <path class="st0" d="M328.04,190.89v36.9h-42.12v29.45h42.12v36.9h-42.12v29.45h42.12v36.9h-42.62c-15.41-.12-24.73-.75-28.08-1.86-7.08-2.24-11.56-7.33-13.54-15.28-2.36-8.82-3.48-23.48-3.35-43.99v-54.05c0-10.56,1.37-27.58,2.73-33.42,1.86-7.83,5.09-13.3,9.82-16.4,3.35-2.11,6.83-3.35,10.56-3.73,4.1-.37,11.31-.75,21.87-.87h42.62Z"/>
  <path class="st0" d="M418.5,321.86l-8.33,38.64h-67.72v-126.62c-.12-21-.99-35.41-2.61-42.99h52.19c-2.61,11.93-3.98,25.85-4.1,41.75v90.95l30.57-1.74Z"/>
  <path class="st0" d="M485.48,190.89h73.56c14.91.12,24.23,1.74,27.83,4.85,4.35,3.85,6.96,10.31,8.08,19.63.75,5.59,1.12,12.18,1.12,19.63v12.92c-.62,20.5-2.61,33.3-6.21,38.39-2.98,4.6-8.2,7.08-15.78,7.7-1.62.12-5.47.12-11.43.12h-31.69v66.35h-45.48v-169.61ZM530.95,257.24h7.58c4.35,0,7.33-.87,8.82-2.61,1.99-2.36,2.98-6.21,2.98-11.56s-.99-9.19-2.98-11.93c-1.62-2.36-4.85-3.48-9.94-3.48h-6.46v29.57Z"/>
  <path class="st0" d="M652.97,324.72v35.79h-45.48v-134.94c-.12-13.79,2.49-23.24,7.83-28.33,3.6-2.98,9.94-4.85,18.89-5.59,5.09-.5,11.56-.75,19.14-.75h18.51c11.31,0,19.88.5,25.47,1.37,5.59.99,9.82,2.61,12.43,4.97,5.47,5.09,8.08,14.54,7.95,28.33v134.94h-45.48v-35.79h-19.26ZM652.97,286.94h19.26v-44.86c0-10.31-3.23-15.53-9.69-15.53s-9.57,5.22-9.57,15.53v44.86Z"/>
  <path class="st0" d="M814.75,190.89v36.9h-40.01v29.45h8.2c10.06.12,17.27,1.12,21.37,3.11,6.59,2.98,10.93,9.07,13.17,18.39,1.12,4.72,1.74,12.55,1.86,23.48v10.44c-.37,14.29-.87,22.86-1.74,25.47-2.36,12.05-8.45,19.14-18.27,21.25-3.23.62-12.18.99-26.96,1.12h-42.5v-36.9h42.74v-29.45h-7.08c-8.45,0-14.54-.62-18.14-1.86-5.59-1.86-9.69-4.85-12.3-8.7-3.11-4.97-4.97-11.93-5.59-20.87-.12-2.73-.25-7.7-.25-15.03v-10.44c.12-14.41,1.37-24.23,3.48-29.45,2.36-6.34,5.59-10.69,9.94-13.05,3.85-2.24,9.69-3.48,17.77-3.73,2.86-.12,7.95-.12,15.03-.12h39.26Z"/>
  <path class="st0" d="M877,324.72v35.79h-45.48v-134.94c-.12-13.79,2.49-23.24,7.83-28.33,3.6-2.98,9.94-4.85,18.89-5.59,5.09-.5,11.56-.75,19.14-.75h18.51c11.31,0,19.88.5,25.47,1.37,5.59.99,9.82,2.61,12.43,4.97,5.47,5.09,8.08,14.54,7.95,28.33v134.94h-45.48v-35.79h-19.26ZM877,286.94h19.26v-44.86c0-10.31-3.23-15.53-9.69-15.53s-9.57,5.22-9.57,15.53v44.86Z"/>
  <path class="st0" d="M976.66,190.89h45.48v122.27c0,9.57-.5,16.53-1.37,20.63-1.99,8.57-6.83,15.53-14.41,20.75-7.08,4.85-16.53,7.21-28.45,7.21-10.31,0-19.26-1.62-26.96-4.72l3.98-40.26c3.85,1.49,7.21,2.24,10.19,2.24,5.09,0,8.45-1.86,9.82-5.59,1.12-2.86,1.74-7.21,1.74-13.05v-109.47Z"/>
  <path class="st0" d="M1124.89,190.89v36.9h-42.12v29.45h42.12v36.9h-42.12v29.45h42.12v36.9h-42.62c-15.41-.12-24.73-.75-28.08-1.86-7.08-2.24-11.56-7.33-13.54-15.28-2.36-8.82-3.48-23.48-3.35-43.99v-54.05c0-10.56,1.37-27.58,2.73-33.42,1.86-7.83,5.09-13.3,9.82-16.4,3.35-2.11,6.83-3.35,10.56-3.73,4.1-.37,11.31-.75,21.87-.87h42.62Z"/>
  <path class="st0" d="M1151.36,318.75v-11.31c0-7.08.5-11.93,1.37-14.79,2.73-7.95,9.19-14.17,19.38-18.64l7.7-3.35c6.34-2.86,10.44-5.96,12.18-9.57,1.12-2.61,1.62-6.71,1.62-12.3v-25.97h-17.02v19.14h-36.9v-16.9c-.12-14.54,2.61-23.98,7.95-28.58,3.23-2.61,8.08-4.35,14.66-4.97,3.48-.37,7.58-.62,12.43-.62h18.64c14.79,0,24.35,1.12,28.83,3.23,8.08,3.73,12.05,13.05,11.93,28.08v19.76c.25,15.28-1.37,26.09-4.97,32.18-4.47,6.09-11.8,11.43-21.87,15.78-4.35,2.11-7.21,4.1-8.82,6.21-2.36,3.11-3.73,6.96-3.98,11.56-.12,1.86-.12,5.47-.12,11.06h-42.99ZM1151.36,333.41h42.99v27.09h-42.99v-27.09Z"/>
  <g>
    <path class="st0" d="M58.46,63.44c-.02,10.9,2.13,20.29-7.85,27.38-4.07,2.89-21.25,8.43-21.25,13.35v25.54h11.09c.99-.97-1.96-11.93,2.07-13.81h24.25v21.4c0,1.77-3.46,8.92-5.21,10.38-7.3,6.06-45.44,5.76-53.5,1.17-6.3-3.59-7.44-14.4-7.87-21.16-.63-9.94-.16-30.29,7.12-37.2,9.53-9.04,25.23-6.69,20.65-27.06h30.49Z"/>
    <path class="st0" d="M58.46,34.45v19.33h-28.41c-4.25-4.78-1.22-13.2-2.08-19.33h30.49Z"/>
  </g>
</svg>