<?xml version="1.0" encoding="UTF-8"?><svg id="Capa_1" xmlns="http://www.w3.org/2000/svg" viewBox="0 0 16 16"><defs><style>.cls-1{fill:#1d1d1b;}.cls-2{fill:#ffed58;}</style></defs><rect class="cls-2" x="-.18" y=".06" width="16.38" height="16.23"/><path class="cls-1" d="M6.32,10.04v-.54c0-.34.02-.56.06-.7.13-.38.44-.67.92-.88l.36-.16c.3-.14.49-.28.58-.45.05-.12.08-.32.08-.58v-1.23h-.81v.91h-1.75v-.8c0-.69.12-1.13.38-1.35.15-.12.38-.21.69-.24.16-.02.36-.03.59-.03h.88c.7,0,1.15.05,1.36.15.38.18.57.62.56,1.33v.93c.01.72-.06,1.23-.24,1.52-.21.29-.56.54-1.03.75-.21.1-.34.19-.42.29-.11.15-.18.33-.19.55,0,.09,0,.26,0,.52h-2.03ZM6.32,10.73h2.03v1.28h-2.03v-1.28Z"/></svg>